<svg width="450" height="450" xmlns="http://www.w3.org/2000/svg" version="1.1">

 <g>
  <title>Layer 1</title>
  <g id="surface1">
   <path id="svg_1" fill="#64748b" fill-rule="nonzero" d="m171.09375,73.43751c-49.54687,0 -89.84375,40.29688 -89.84375,89.84375l0,11.94922c-17.54687,1.95312 -31.25,16.85937 -31.25,34.92578l0,23.4375c0,19.37891 15.76172,35.15625 35.15625,35.15625l4.625,0c1.61719,4.53125 5.91797,7.8125 11,7.8125c6.45313,0 11.71875,-5.26562 11.71875,-11.71875l0,-85.9375c0,-6.45312 -5.26562,-11.71875 -11.71875,-11.71875c-5.08203,0 -9.38281,3.28125 -11,7.8125l-0.71875,0l0,-11.71875c0,-19.02734 6.5625,-36.53125 17.48828,-50.46094l17.69922,17.36328c3.05078,2.99219 7.00391,4.51954 10.95313,4.51954c3.49609,0 6.96093,-1.17579 9.82812,-3.57032c8.39453,-6.97656 19.02734,-10.82031 29.96875,-10.82031c10.89453,0 21.51563,3.82813 29.89063,10.77344c6.13671,5.08203 15.07812,4.63672 20.8125,-1.00781l17.60937,-17.42579c11.00391,13.96094 17.625,31.52344 17.625,50.62891l0,11.71875l-0.71875,0c-1.61719,-4.53125 -5.91797,-7.8125 -11,-7.8125c-6.45312,0 -11.71875,5.26563 -11.71875,11.71875l0,85.9375c0,6.45313 5.26563,11.71875 11.71875,11.71875c5.08203,0 9.38281,-3.28125 11,-7.8125l4.625,0c19.39453,0 35.15625,-15.77734 35.15625,-35.15625l0,-23.4375c0,-18.06641 -13.70312,-32.97266 -31.25,-34.92578l0,-11.94922c0,-49.54687 -40.29687,-89.84375 -89.84375,-89.84375l-7.8125,0zm0,7.8125l7.8125,0c23.31641,0 44.34375,9.82813 59.28125,25.49609l-17.97656,17.76172c-2.86719,2.82422 -7.3086,3.06641 -10.34375,0.56641c-9.76563,-8.11719 -22.14063,-12.57422 -34.86719,-12.57422c-12.75781,0 -25.17578,4.48438 -34.97266,12.63281c-3.00781,2.51953 -7.44531,2.28907 -10.3164,-0.53125l-18.05078,-17.70312c14.95312,-15.76172 36.04297,-25.64844 59.43359,-25.64844zm3.90625,7.8125c-2.16797,0 -3.90625,1.75391 -3.90625,3.90625l0,7.8125c0,2.15234 1.73828,3.90625 3.90625,3.90625c2.16797,0 3.90625,-1.75391 3.90625,-3.90625l0,-7.8125c0,-2.15234 -1.73828,-3.90625 -3.90625,-3.90625zm21.19531,2.88281c-1.49609,0.21485 -2.80859,1.29688 -3.23437,2.8711l-2.03125,7.55078c-0.54688,2.07812 0.6875,4.22656 2.76172,4.77734c0.35156,0.08985 0.6875,0.13672 1.02343,0.13672c1.72266,0 3.3125,-1.14453 3.78516,-2.89844l2.01172,-7.55468c0.56641,-2.07422 -0.6875,-4.21094 -2.76172,-4.77344c-0.51953,-0.14063 -1.05078,-0.16797 -1.55469,-0.10938zm-42.39062,0.01563c-0.50391,-0.07422 -1.03516,-0.04688 -1.55469,0.09375c-2.07422,0.5625 -3.32812,2.69922 -2.76172,4.78906l2.01172,7.53906c0.47266,1.75391 2.04688,2.91407 3.78516,2.91407c0.33593,0 0.67187,-0.04688 1.02343,-0.15235c2.07422,-0.55078 3.3086,-2.6875 2.76172,-4.77734l-2.03125,-7.55078c-0.42578,-1.5586 -1.73828,-2.64063 -3.23437,-2.85547zm-21.28516,8.3789c-0.5039,0.0586 -1.00781,0.22657 -1.46484,0.50391c-1.875,1.06641 -2.50391,3.46094 -1.41797,5.32422l3.90625,6.75781c0.71484,1.26953 2.02734,1.95313 3.37109,1.95313c0.67188,0 1.34375,-0.15235 1.95313,-0.50391c1.875,-1.08203 2.5039,-3.47656 1.41797,-5.35547l-3.90625,-6.75781c-0.8086,-1.39063 -2.34766,-2.10547 -3.85938,-1.92188zm84.96094,0.01563c-1.52734,-0.19922 -3.06641,0.51562 -3.85938,1.90625l-3.90625,6.77344c-1.08593,1.86328 -0.45703,4.25781 1.41797,5.33984c0.60938,0.35156 1.28125,0.51953 1.95313,0.51953c1.34375,0 2.65625,-0.69922 3.37109,-1.95312l3.90625,-6.77344c1.08594,-1.86328 0.44531,-4.24219 -1.41797,-5.32422c-0.47265,-0.27734 -0.97656,-0.42969 -1.46484,-0.48828zm-116.69922,74.64453c2.15234,0 3.90625,1.75391 3.90625,3.90625l0,85.9375c0,2.15234 -1.75391,3.90625 -3.90625,3.90625c-2.15234,0 -3.90625,-1.75391 -3.90625,-3.90625l0,-85.9375c0,-2.15234 1.75391,-3.90625 3.90625,-3.90625zm148.4375,0c2.15234,0 3.90625,1.75391 3.90625,3.90625l0,85.9375c0,2.15234 -1.75391,3.90625 -3.90625,3.90625c-2.15234,0 -3.90625,-1.75391 -3.90625,-3.90625l0,-85.9375c0,-2.15234 1.75391,-3.90625 3.90625,-3.90625zm-164.0625,7.8125l3.90625,0l0,78.125l-3.90625,0c-15.07422,0 -27.34375,-12.26953 -27.34375,-27.34375l0,-23.4375c0,-15.07422 12.26953,-27.34375 27.34375,-27.34375zm175.78125,0l3.90625,0c15.07422,0 27.34375,12.26953 27.34375,27.34375l0,23.4375c0,15.07422 -12.26953,27.34375 -27.34375,27.34375l-3.90625,0l0,-78.125zm0,0"/>
  </g>
 </g>
</svg>